<?xml version="1.0" standalone="no"?><svg xmlns="http://www.w3.org/2000/svg" viewBox="0 0 1440 320"><path fill="#FF6148" fill-opacity="1" d="M0,288L40,240C80,192,160,96,240,90.7C320,85,400,171,480,176C560,181,640,107,720,112C800,117,880,203,960,224C1040,245,1120,203,1200,197.3C1280,192,1360,224,1400,240L1440,256L1440,320L1400,320C1360,320,1280,320,1200,320C1120,320,1040,320,960,320C880,320,800,320,720,320C640,320,560,320,480,320C400,320,320,320,240,320C160,320,80,320,40,320L0,320Z"></path></svg>